<svg width="39" height="25" viewBox="0 0 39 25" fill="none" xmlns="http://www.w3.org/2000/svg">
<path d="M38 0H1C0.447715 0 0 0.447716 0 1V24C0 24.5523 0.447715 25 1 25H38C38.5523 25 39 24.5523 39 24V1C39 0.447715 38.5523 0 38 0Z" fill="#2557D6"/>
<path d="M0.00898906 11.7851C0.00902108 11.7851 0.00906449 11.7851 0.00910975 11.7851H1.34964C1.67225 11.7851 1.96402 11.5934 2.09214 11.2974L2.11565 11.243C2.22949 10.9799 2.48877 10.8096 2.77544 10.8096C3.06237 10.8096 3.32182 10.9802 3.43551 11.2437L3.45869 11.2974C3.58645 11.5934 3.878 11.7851 4.20042 11.7851H7.22325C7.29468 11.7851 7.35259 11.7272 7.35259 11.6558C7.35259 11.5158 7.54408 11.4756 7.60036 11.6038L7.64176 11.6981C7.66584 11.7529 7.72007 11.7884 7.77998 11.7884H9.49439C9.55457 11.7884 9.60901 11.7526 9.6329 11.6974L9.67337 11.6038C9.72932 11.4745 9.92234 11.5144 9.92234 11.6553C9.92234 11.727 9.98046 11.7852 10.0522 11.7852H18.2757C18.7175 11.7852 19.0754 11.4264 19.0742 10.9845L19.0726 10.361C19.0723 10.2632 19.1515 10.1839 19.2492 10.1839C19.3731 10.188 19.4094 10.199 19.4094 10.3952V10.7852C19.4094 11.3375 19.8571 11.7852 20.4094 11.7852H24.0025C24.0806 11.7852 24.1438 11.7219 24.1438 11.6438C24.1438 11.5381 24.2562 11.4687 24.354 11.5088C24.7305 11.6628 25.2509 11.7852 25.9012 11.7852H27.3608C27.6841 11.7852 27.9767 11.5937 28.1062 11.2974L28.1309 11.2407C28.2453 10.9789 28.504 10.8097 28.7897 10.8097C29.0776 10.8097 29.3377 10.9814 29.4508 11.2461L29.4727 11.2974C29.5991 11.5933 29.8898 11.7852 30.2116 11.7852H33.3124C33.4267 11.7852 33.5194 11.6925 33.5194 11.5781C33.5194 11.3703 33.7914 11.2921 33.9018 11.4681L34.0209 11.6579C34.0705 11.7371 34.1574 11.7852 34.2509 11.7852H36.1764C36.7287 11.7852 37.1764 11.3375 37.1764 10.7852V6.65967C37.1764 6.10738 36.7287 5.65967 36.1764 5.65967H34.2874C34.2018 5.65967 34.1324 5.72905 34.1324 5.81464C34.1324 5.97247 33.924 6.02928 33.8439 5.89329L33.7638 5.75719C33.7282 5.69676 33.6633 5.65967 33.5932 5.65967H30.7289C30.6482 5.65967 30.5828 5.7251 30.5828 5.80582C30.5828 5.9575 30.3803 6.00877 30.3081 5.87537L30.2427 5.75451C30.2111 5.69608 30.15 5.65967 30.0836 5.65967H25.9724C25.3582 5.65967 24.8085 5.73113 24.3458 5.92295C24.2522 5.96175 24.1439 5.89575 24.1439 5.79442C24.1439 5.72 24.0836 5.65967 24.0092 5.65967H21.3456C21.2831 5.65967 21.2325 5.7103 21.2325 5.77276C21.2325 5.86916 21.1159 5.92531 21.0318 5.87824C20.7408 5.71546 20.3837 5.65967 19.995 5.65967H9.75368C9.51282 5.65967 9.29432 5.8008 9.19528 6.02035C8.97952 6.49861 8.29849 6.49532 8.07793 6.01925C7.97691 5.80119 7.75754 5.65967 7.51721 5.65967H4.701C4.62373 5.65967 4.56109 5.72231 4.56109 5.79958C4.56109 5.94669 4.36319 5.99415 4.29647 5.86304L4.24017 5.7524C4.21122 5.6955 4.15278 5.65967 4.08894 5.65967H1.97901C1.5872 5.65967 1.23148 5.88849 1.06902 6.24504L0.0987971 8.37442C0.0394825 8.5046 0.00878906 8.64599 0.00878906 8.78905V11.7849C0.00878906 11.785 0.00883656 11.785 0.00889514 11.785C0.00892326 11.785 0.00895024 11.785 0.00897013 11.785L0.00898906 11.7851ZM11.826 10.3397C11.826 10.65 11.5744 10.9016 11.2641 10.9016C10.954 10.9016 10.7025 10.6504 10.7022 10.3404L10.7021 10.281C10.7013 9.6152 9.79576 9.41675 9.51659 10.0212L9.30625 10.4765C9.18657 10.7357 8.92718 10.9016 8.64176 10.9016H8.61584C8.33055 10.9016 8.07126 10.7358 7.95146 10.4769L7.73987 10.0196C7.46034 9.41547 6.55504 9.61475 6.55504 10.2804C6.55504 10.6235 6.27695 10.9016 5.93391 10.9016H4.85966C4.53618 10.9016 4.24376 10.709 4.11604 10.4118C3.98831 10.1146 3.6959 9.92197 3.37242 9.92197H2.15815C1.83395 9.92197 1.54066 10.1144 1.41156 10.4118L1.34038 10.5757C1.2545 10.7736 1.05941 10.9016 0.843745 10.9016C0.4515 10.9016 0.189427 10.4975 0.349422 10.1393L1.70642 7.10182C1.86733 6.74164 2.22495 6.50972 2.61945 6.50972H3.0446C3.38185 6.50972 3.68765 6.70778 3.82557 7.01554L4.06139 7.54177C4.38443 8.26261 5.46234 8.03212 5.46234 7.24222C5.46234 6.83767 5.79029 6.50972 6.19484 6.50972H6.62213C7.00634 6.50972 7.35658 6.72985 7.5232 7.07605L7.74495 7.53679C8.11491 8.30549 9.21566 8.28772 9.56062 7.50747L9.7384 7.10536C9.89848 6.74328 10.2571 6.50972 10.653 6.50972H10.826C11.3783 6.50972 11.826 6.95743 11.826 7.50971L11.826 10.3397ZM2.7824 9.01047C3.13684 9.01047 3.37584 8.6481 3.23629 8.32229C3.06514 7.9227 2.49847 7.92327 2.32812 8.3232C2.18939 8.6489 2.42839 9.01047 2.7824 9.01047ZM16.296 10.4473C16.296 10.6982 16.0927 10.9015 15.8419 10.9015H13.6359C13.0836 10.9015 12.6359 10.4538 12.6359 9.90152V7.50967C12.6359 6.95738 13.0836 6.50967 13.6359 6.50967H15.8388C16.0913 6.50967 16.296 6.7144 16.296 6.96694C16.296 7.21949 16.0913 7.42422 15.8388 7.42422H14.1274C13.9088 7.42422 13.7316 7.60143 13.7316 7.82004C13.7316 8.03865 13.9088 8.21587 14.1274 8.21587H15.7845C16.0331 8.21587 16.2346 8.41739 16.2346 8.66599C16.2346 8.91459 16.0331 9.11612 15.7845 9.11612H14.1701C13.9279 9.11612 13.7315 9.31246 13.7315 9.55467C13.7315 9.79687 13.9279 9.99322 14.1701 9.99322H15.8419C16.0927 9.99322 16.296 10.1965 16.296 10.4473ZM21.454 7.69252C21.454 8.02149 21.3464 8.27577 21.2027 8.46418C21.0637 8.64659 21.0851 9.05049 21.2241 9.23297C21.3788 9.45142 21.4055 9.64652 21.4055 10.0388V10.3468C21.4055 10.6532 21.1572 10.9015 20.8508 10.9015C20.5461 10.9015 20.2984 10.6524 20.2961 10.3477C20.2961 10.0834 20.3225 9.70337 20.1232 9.49207C19.9631 9.33757 19.7191 9.30407 19.3246 9.30407H18.9472C18.5061 9.30407 18.1484 9.66168 18.1484 10.1028V10.3537C18.1484 10.6563 17.9032 10.9016 17.6006 10.9016C17.298 10.9016 17.0527 10.6563 17.0527 10.3537V7.50967C17.0527 6.95738 17.5005 6.50967 18.0527 6.50967H19.5728C20.1327 6.50967 20.5453 6.52382 20.8995 6.72002C21.2462 6.91622 21.454 7.20262 21.454 7.69252ZM20.0691 8.34462C19.9184 8.43222 19.7404 8.43512 19.527 8.43512H18.6838C18.4144 8.43512 18.196 8.21674 18.196 7.94737C18.196 7.67799 18.4144 7.45962 18.6838 7.45962H19.5451C19.736 7.45962 19.9353 7.46782 20.0648 7.53882C20.2069 7.60282 20.2948 7.73897 20.2948 7.92707C20.2948 8.11907 20.2111 8.27352 20.0691 8.34462ZM23.2113 10.3426C23.2113 10.6513 22.961 10.9015 22.6523 10.9015C22.3436 10.9015 22.0934 10.6513 22.0934 10.3426V7.06862C22.0934 6.75992 22.3436 6.50967 22.6523 6.50967C22.961 6.50967 23.2113 6.75992 23.2113 7.06862V10.3426ZM36.1893 9.90152C36.1893 10.4538 35.7416 10.9015 35.1893 10.9015H35.1722C34.8388 10.9015 34.5289 10.7304 34.3512 10.4484L33.9233 9.76929C33.5285 9.14265 32.5599 9.42234 32.5599 10.163C32.5599 10.5709 32.2292 10.9015 31.8213 10.9015H30.8627C30.5383 10.9015 30.2448 10.7092 30.1153 10.4117C29.9859 10.1143 29.6923 9.92192 29.368 9.92192H28.1577C27.8355 9.92192 27.5446 10.1149 27.4193 10.4117C27.294 10.7086 27.0031 10.9015 26.6809 10.9015H25.9301C25.3977 10.9015 24.7232 10.7887 24.3415 10.4158C23.9564 10.0429 23.7561 9.53777 23.7561 8.73912C23.7561 8.08777 23.8758 7.49232 24.3467 7.02177C24.7009 6.67127 25.2557 6.50967 26.0107 6.50967H26.6009C26.8608 6.50967 27.0714 6.72033 27.0714 6.98019C27.0714 7.24006 26.8608 7.45072 26.6009 7.45072H26.0329C25.633 7.45072 25.4072 7.50772 25.1898 7.71087C25.003 7.89582 24.8749 8.24537 24.8749 8.70572C24.8749 9.17622 24.9724 9.51552 25.176 9.73712C25.3447 9.91092 25.6513 9.96362 25.9396 9.96362C26.239 9.96362 26.5104 9.78767 26.6326 9.51438L27.7113 7.10165C27.8723 6.74162 28.2299 6.50982 28.6242 6.50982H29.0651C29.4012 6.50982 29.7059 6.70745 29.843 7.01435L30.0765 7.53731C30.3977 8.25642 31.4728 8.02727 31.4728 7.23971C31.4728 6.83663 31.7995 6.50987 32.2026 6.50987H32.6443C32.9535 6.50987 33.241 6.6686 33.4058 6.93023L33.8023 7.55994C34.1684 8.14135 35.067 7.88199 35.067 7.19492V7.07099C35.067 6.76109 35.3183 6.50987 35.6282 6.50987C35.9381 6.50987 36.1893 6.76109 36.1893 7.07099V9.90152ZM28.7723 9.01052C29.13 9.01052 29.3706 8.6441 29.2285 8.31588C29.0553 7.91605 28.4881 7.91662 28.3158 8.3168C28.1744 8.64491 28.4151 9.01052 28.7723 9.01052ZM38.9811 17.9144C38.9812 17.9145 38.9812 17.9146 38.9812 17.9147C38.715 18.2874 38.1965 18.4764 37.4945 18.4764H35.8495C35.5894 18.4764 35.3785 18.2655 35.3785 18.0054C35.3785 17.7453 35.5894 17.5344 35.8495 17.5344H37.4859C37.6949 17.5344 37.8412 17.5081 37.9293 17.4257C38.0125 17.352 38.0595 17.248 38.0588 17.1392C38.0588 17.0112 38.0056 16.9096 37.925 16.8487C37.8455 16.7816 37.7298 16.7512 37.5389 16.7512C36.5102 16.7177 35.2267 16.7816 35.2267 15.3915C35.2267 14.7544 35.6488 14.0837 36.7986 14.0837H38.5441C38.7854 14.0837 38.9811 13.888 38.9811 13.6467C38.9811 13.4054 38.7854 13.2097 38.5441 13.2097H36.9532C36.4624 13.2097 36.0793 13.3001 35.7844 13.4485C35.6955 13.4932 35.582 13.4324 35.582 13.333C35.582 13.2649 35.5268 13.2097 35.4587 13.2097H32.5827C32.2049 13.2097 31.7756 13.2803 31.4801 13.4299C31.3951 13.473 31.2738 13.4144 31.2738 13.3191C31.2738 13.2587 31.2248 13.2097 31.1643 13.2097H26.0412C25.973 13.2097 25.9178 13.2649 25.9178 13.3331C25.9178 13.4326 25.8034 13.4948 25.7131 13.453C25.2886 13.2563 24.7236 13.2097 24.4403 13.2097H21.0165C20.9563 13.2097 20.9075 13.2585 20.9075 13.3186C20.9075 13.4138 20.7861 13.4721 20.7009 13.4298C20.3214 13.2411 19.7419 13.2097 19.3632 13.2097H15.7795C15.543 13.2097 15.3167 13.3058 15.1525 13.4761L15.125 13.5045C14.7896 13.8524 14.2296 13.8433 13.9056 13.4847C13.7475 13.3096 13.5226 13.2097 13.2867 13.2097H8.75074C8.19845 13.2097 7.75074 13.6574 7.75074 14.2097V18.3392C7.75074 18.8914 8.19845 19.3392 8.75074 19.3392H13.1652C13.4086 19.3392 13.6417 19.2411 13.8118 19.0671L13.8379 19.0405C14.1859 18.6847 14.7611 18.6933 15.0984 19.0593C15.2628 19.2377 15.4943 19.3393 15.7368 19.3395L18.2071 19.3416C18.6054 19.3419 18.9284 19.0192 18.9284 18.621V18.2514C18.9284 18.0575 19.0856 17.9003 19.2794 17.9003C19.4569 17.9029 19.6463 17.902 19.8398 17.8891C20.3109 17.8576 20.8056 18.2041 20.8056 18.6763C20.8056 19.0423 21.1023 19.339 21.4682 19.339H22.9532C23.3944 19.339 23.752 18.9813 23.752 18.5402V17.8835C23.752 17.805 23.8156 17.7414 23.8941 17.7414C24.0755 17.7414 24.0933 17.7486 24.0933 17.9221V18.3388C24.0933 18.891 24.5411 19.3388 25.0933 19.3388H33.0438C33.4997 19.3388 33.9722 19.2491 34.3111 19.083C34.4075 19.0358 34.535 19.1019 34.535 19.2093C34.535 19.2808 34.593 19.3388 34.6645 19.3388H37.374C37.8332 19.3388 38.2841 19.2908 38.6683 19.1741C38.8633 19.1148 38.9808 18.9259 38.9808 18.7221L38.9808 17.9146C38.9808 17.9145 38.981 17.9144 38.9811 17.9144ZM21.2343 15.5568C21.2343 16.7771 20.284 17.029 19.3263 17.029H18.6959C18.289 17.029 17.9592 17.3589 17.9592 17.7657C17.9592 18.1726 17.6293 18.5025 17.2225 18.5025H16.266C15.9878 18.5025 15.7221 18.3866 15.5329 18.1826L15.1996 17.8233C14.8091 17.4024 14.1451 17.396 13.7466 17.8094L13.3733 18.1965C13.1848 18.392 12.9249 18.5025 12.6534 18.5025H9.73824C9.18595 18.5025 8.73824 18.0547 8.73824 17.5025V15.1095C8.73824 14.5572 9.18595 14.1095 9.73824 14.1095H12.7113C12.988 14.1095 13.2523 14.2241 13.4414 14.4261L13.7751 14.7826C14.1658 15.1999 14.8261 15.2054 15.2237 14.7946L15.592 14.414C15.7804 14.2194 16.0397 14.1095 16.3106 14.1095H19.3878C20.2573 14.1095 21.2343 14.3402 21.2343 15.5568ZM12.8179 17.2751C12.6295 17.469 12.3708 17.5785 12.1004 17.5785H10.2664C10.025 17.5785 9.82939 17.3828 9.82939 17.1415C9.82939 16.9001 10.025 16.7045 10.2664 16.7045H11.7867C12.0342 16.7045 12.2349 16.5038 12.2349 16.2563C12.2349 16.0088 12.0342 15.8082 11.7867 15.8082H10.2287C10.0082 15.8082 9.82939 15.6294 9.82939 15.4088C9.82939 15.1883 10.0082 15.0095 10.2287 15.0095H12.1427C12.4193 15.0095 12.6836 15.1241 12.8727 15.3261L13.1232 15.5936C13.488 15.9833 13.4824 16.5908 13.1106 16.9737L12.8179 17.2751ZM16.8638 16.2999C16.8638 16.9394 16.0815 17.2493 15.6435 16.7834C15.3851 16.5085 15.3885 16.0789 15.6514 15.8081C16.093 15.3533 16.8638 15.666 16.8638 16.2999ZM19.3516 16.1282H18.4951C18.1862 16.1282 17.9357 15.8777 17.9357 15.5688C17.9357 15.2599 18.1862 15.0095 18.4951 15.0095H19.3643C19.7599 15.0095 20.0345 15.164 20.0345 15.5481C20.0345 15.928 19.7726 16.1282 19.3516 16.1282ZM26.7696 15.1095C26.7696 14.5572 27.2173 14.1095 27.7696 14.1095H29.9723C30.2232 14.1095 30.4265 14.3129 30.4265 14.5638C30.4265 14.8146 30.2232 15.018 29.9723 15.018H28.2601C28.0396 15.018 27.8608 15.1968 27.8608 15.4173C27.8608 15.6379 28.0396 15.8167 28.2601 15.8167H29.9157C30.1632 15.8167 30.3639 16.0173 30.3639 16.2648C30.3639 16.5123 30.1632 16.713 29.9157 16.713H28.2981C28.0566 16.713 27.8608 16.9088 27.8608 17.1503C27.8608 17.3916 28.0562 17.5873 28.2974 17.5876L29.9711 17.5903C30.2227 17.5906 30.4265 17.7947 30.4265 18.0464C30.4265 18.2983 30.2223 18.5025 29.9704 18.5025H27.7696C27.2173 18.5025 26.7695 18.0547 26.7696 17.5024L26.7696 15.1095ZM25.8842 16.0684C25.746 16.2464 25.7675 16.6477 25.9004 16.8297C26.0551 17.0443 26.0775 17.2444 26.0819 17.6316V17.9524C26.0819 18.2562 25.8354 18.5025 25.5317 18.5025C25.2281 18.5025 24.9818 18.2564 24.9818 17.9529C24.9818 17.6886 25.0084 17.2973 24.8047 17.093C24.6447 16.9356 24.4006 16.898 24.0009 16.898H23.6322C23.1891 16.898 22.8299 17.2572 22.8299 17.7003V17.952C22.8299 18.256 22.5835 18.5025 22.2794 18.5025C21.9754 18.5025 21.7289 18.256 21.7289 17.952V15.1096C21.7289 14.5573 22.1767 14.1096 22.7289 14.1096H24.2586C24.8133 14.1096 25.2173 14.1331 25.5769 14.3169C25.9227 14.5171 26.1402 14.7912 26.1402 15.2924C26.1402 15.6249 26.0304 15.8802 25.8842 16.0684ZM24.7444 15.9056C24.5978 15.989 24.4166 15.9962 24.2035 15.9962H23.3657C23.0933 15.9962 22.8724 15.7753 22.8724 15.5029C22.8724 15.2304 23.0933 15.0096 23.3657 15.0096H24.2215C24.4166 15.0096 24.6119 15.0136 24.7444 15.0889C24.8864 15.1601 24.9713 15.2962 24.9713 15.4841C24.9713 15.672 24.8864 15.8234 24.7444 15.9056ZM34.6354 16.1855C34.8489 16.3969 34.9631 16.664 34.9631 17.1161C34.9631 18.0611 34.347 18.5023 33.2419 18.5023H31.5789C31.3188 18.5023 31.1079 18.2914 31.1079 18.0313C31.1079 17.7711 31.3188 17.5603 31.5789 17.5603H33.2334C33.4412 17.5603 33.5886 17.534 33.6809 17.4515C33.7563 17.3836 33.8103 17.2849 33.8103 17.1651C33.8103 17.037 33.7518 16.9355 33.6766 16.8745C33.5928 16.8075 33.4773 16.7771 33.2864 16.7771C32.2618 16.7436 30.9786 16.8075 30.9786 15.4175C30.9786 14.7803 31.3963 14.1096 32.5451 14.1096H34.2742C34.5324 14.1096 34.7417 14.3189 34.7417 14.5771C34.7417 14.8353 34.5324 15.0446 34.2742 15.0446H32.7318C32.5326 15.0446 32.403 15.0518 32.2928 15.1239C32.1728 15.195 32.1283 15.3006 32.1283 15.4399C32.1283 15.6056 32.2302 15.7184 32.3681 15.7672C32.4836 15.8057 32.6078 15.8169 32.7944 15.8169L33.3842 15.8322C33.979 15.846 34.3873 15.9446 34.6354 16.1855ZM38.9832 15.0095H36.9863C36.787 15.0095 36.6544 15.0167 36.5429 15.0888C36.4273 15.16 36.3828 15.2655 36.3828 15.4049C36.3828 15.5706 36.4804 15.6833 36.6224 15.7321C36.738 15.7707 36.8621 15.7819 37.0446 15.7819L37.6385 15.7971C38.2376 15.8113 38.6376 15.91 38.8815 16.1507C38.9214 16.1807 38.9831 16.16 38.9831 16.1101V15.0095C38.9831 15.0095 38.9832 15.0095 38.9832 15.0095Z" fill="white"/>
</svg>
