<svg width="39" height="25" viewBox="0 0 39 25" fill="none" xmlns="http://www.w3.org/2000/svg">
<path d="M38 0H1C0.447715 0 0 0.447716 0 1V24C0 24.5523 0.447715 25 1 25H38C38.5523 25 39 24.5523 39 24V1C39 0.447715 38.5523 0 38 0Z" fill="#16366F"/>
<path d="M22.4505 12.4999C22.4505 17.4571 18.432 21.4749 13.475 21.4749C8.518 21.4749 4.5 17.4569 4.5 12.4999C4.5 7.54325 8.5181 3.5249 13.475 3.5249C18.4319 3.5249 22.4505 7.5434 22.4505 12.4999Z" fill="#D9222A"/>
<path d="M25.5243 3.5249C23.2053 3.5249 21.0922 4.4047 19.4993 5.8482C19.1115 6.2001 19.3833 6.798 19.907 6.798H20.1634C20.3172 6.798 20.4637 6.86634 20.5582 6.98771C20.8066 7.30668 20.5657 7.74865 20.1615 7.74865H18.191C18.0155 7.74865 17.8514 7.83852 17.7631 7.9902C17.5756 8.31234 17.8196 8.69905 18.1923 8.69905H21.2859C21.4821 8.69905 21.6617 8.81215 21.7384 8.99273C21.8734 9.31055 21.6304 9.64925 21.2851 9.64925H17.3742C17.1577 9.64925 16.964 9.7872 16.9037 9.99508C16.8142 10.3032 17.0538 10.5997 17.3747 10.5997H21.4404C21.9115 10.5997 22.3248 10.9281 22.3824 11.3958C22.4275 11.7619 22.4501 12.1307 22.45 12.5001C22.45 13.2448 22.3592 13.9685 22.1881 14.6603C22.0849 15.0776 21.6976 15.3511 21.2677 15.3511H17.7141C17.3686 15.3511 17.1254 15.6898 17.2604 16.0078C17.3371 16.1885 17.5169 16.3016 17.7133 16.3016H20.8066C21.1794 16.3016 21.4233 16.6884 21.2358 17.0106C21.1474 17.1623 20.9833 17.2523 20.8078 17.2523H18.8375C18.4335 17.2523 18.1931 17.6943 18.4415 18.013C18.5359 18.1342 18.682 18.2021 18.8356 18.2021H19.5417C19.8865 18.2021 20.0693 18.5979 19.8257 18.8419C19.6552 19.0127 19.654 19.2938 19.8407 19.4467C21.3885 20.7146 23.3673 21.4754 25.5244 21.4754C30.4813 21.4753 34.4999 17.4573 34.4999 12.5004C34.4999 7.54385 30.4814 3.52535 25.5244 3.52535" fill="#EE9F2D"/>
<path d="M33.3033 17.5033C33.3033 17.3433 33.4329 17.2133 33.5931 17.2133C33.7533 17.2133 33.8829 17.3433 33.8829 17.5033C33.8829 17.6633 33.7533 17.7933 33.5931 17.7933C33.433 17.7932 33.3032 17.6634 33.3033 17.5033ZM33.5931 17.7237C33.7148 17.7237 33.8134 17.625 33.8135 17.5033C33.8135 17.3817 33.7149 17.2831 33.5933 17.2831H33.5931C33.4716 17.2829 33.3731 17.3813 33.3729 17.5027V17.5034C33.3727 17.6249 33.4711 17.7235 33.5926 17.7238C33.5927 17.7238 33.5929 17.7237 33.5931 17.7237ZM33.5539 17.601C33.5539 17.6174 33.5406 17.6307 33.5242 17.6307C33.5078 17.6307 33.4945 17.6174 33.4945 17.601V17.4835C33.4945 17.4241 33.5426 17.376 33.602 17.376C33.6245 17.376 33.6474 17.376 33.6672 17.3887C33.6879 17.4026 33.6995 17.4272 33.6995 17.4526C33.6995 17.4643 33.6967 17.4757 33.6915 17.4858C33.679 17.5099 33.664 17.539 33.6745 17.5641L33.6849 17.5891C33.6931 17.6089 33.6786 17.6307 33.6571 17.6307C33.6447 17.6307 33.6335 17.6231 33.629 17.6115L33.6038 17.5464C33.6 17.5365 33.5904 17.5299 33.5798 17.5299C33.5655 17.5299 33.554 17.5415 33.554 17.5557L33.5539 17.601ZM33.5539 17.4537C33.5539 17.4717 33.5685 17.4862 33.5864 17.4862H33.5868C33.5991 17.4862 33.612 17.4872 33.6231 17.4812C33.6329 17.475 33.6379 17.4633 33.6379 17.452C33.6379 17.4423 33.6319 17.431 33.6235 17.4262C33.6131 17.4197 33.5967 17.4212 33.5856 17.4212C33.5681 17.4212 33.5539 17.4353 33.5539 17.4528V17.4537ZM11.3568 13.7C11.3784 13.5786 11.2848 13.468 11.1614 13.468C10.6092 13.468 10.3296 13.6575 10.3296 14.0314C10.3296 14.262 10.4661 14.4087 10.6789 14.4087C11.0209 14.4087 11.2806 14.1281 11.3568 13.7ZM12.1347 14.7602C12.1049 14.9709 11.9243 15.1329 11.7114 15.1329H11.3785C11.325 15.1329 11.2823 15.0881 11.2849 15.0346C11.2893 14.9442 11.167 14.8938 11.0953 14.9491C10.8786 15.1162 10.6109 15.1966 10.2775 15.1966C9.74937 15.1966 9.38727 14.7841 9.38727 14.1851C9.38727 13.2839 10.0171 12.7581 11.0981 12.7581C11.1447 12.7581 11.1969 12.7599 11.2526 12.7634C11.3913 12.7719 11.5333 12.6855 11.5333 12.5466C11.5333 12.3012 11.3635 12.2097 10.9083 12.2097C10.7517 12.2079 10.6042 12.2195 10.4709 12.2379C10.1957 12.2757 9.94417 11.963 9.98854 11.6888C10.0113 11.5483 10.0989 11.517 10.2367 11.481C10.6029 11.3852 10.8765 11.3476 11.1783 11.3476C12.015 11.3476 12.4581 11.7232 12.4573 12.4332C12.4589 12.6235 12.4275 12.8582 12.3783 13.1668C12.3159 13.5627 12.2007 14.2923 12.1347 14.7602ZM9.04636 14.7293C9.00783 14.9621 8.80649 15.1329 8.57051 15.1329H8.35092C8.16947 15.1329 8.03104 14.9706 8.05962 14.7914C8.11611 14.4372 7.61076 14.3081 7.49043 14.646L7.3932 14.9191C7.34755 15.0473 7.22619 15.1329 7.09012 15.1329H6.95028C6.78501 15.1329 6.64996 15.001 6.64606 14.8357C6.63738 14.467 6.1031 14.4286 6.04178 14.7923L6.02824 14.8727C6.00291 15.0229 5.87283 15.1329 5.72049 15.1329H5.60386C5.32565 15.1329 5.11409 14.883 5.16001 14.6086L5.72623 11.2251C5.78853 10.8529 6.11067 10.5802 6.48807 10.5802H6.85642C7.06761 10.5802 7.24075 10.7476 7.24779 10.9587C7.26234 11.3948 7.87169 11.4839 8.01044 11.0702L8.07661 10.8729C8.13525 10.698 8.29905 10.5802 8.48347 10.5802H8.76525C9.27211 10.5802 9.65784 11.035 9.57507 11.535L9.04636 14.7293ZM26.7067 13.6997C26.7282 13.5784 26.6346 13.468 26.5115 13.468C25.9594 13.468 25.6798 13.6575 25.6798 14.0314C25.6798 14.262 25.8161 14.4087 26.0289 14.4087C26.3711 14.4087 26.631 14.1279 26.7067 13.6997ZM27.4849 14.7598C27.4551 14.9707 27.2743 15.1329 27.0613 15.1329H26.7289C26.6753 15.1329 26.6326 15.0881 26.6351 15.0346C26.6394 14.9441 26.5171 14.8937 26.4453 14.949C26.2286 15.1161 25.9608 15.1966 25.6277 15.1966C25.0994 15.1966 24.7377 14.7841 24.7377 14.1851C24.7377 13.2839 25.3671 12.7581 26.4483 12.7581C26.4949 12.7581 26.5469 12.7599 26.6025 12.7633C26.7411 12.7719 26.8832 12.6855 26.8832 12.5466C26.8832 12.3012 26.7136 12.2097 26.2584 12.2097C26.1017 12.2079 25.9541 12.2196 25.8208 12.2379C25.5455 12.2758 25.2942 11.9631 25.3387 11.6888C25.3615 11.5482 25.4491 11.517 25.5869 11.481C25.9531 11.3852 26.2265 11.3476 26.5279 11.3476C27.365 11.3476 27.8081 11.7232 27.8073 12.4332C27.8089 12.6235 27.7775 12.8582 27.7283 13.1668C27.6663 13.5626 27.551 14.292 27.4849 14.7598ZM16.4528 14.8566C16.4316 14.9914 16.3364 15.1048 16.2038 15.1368C16.0322 15.1781 15.8797 15.1966 15.7182 15.1966C15.2201 15.1966 14.9482 14.9103 14.9482 14.3832C14.9411 14.2197 15.0199 13.7893 15.0817 13.3964C15.1229 13.1429 15.3307 11.9036 15.4388 11.2598C15.4766 11.0343 15.6717 10.8699 15.9005 10.8699H16.1869C16.3347 10.8699 16.4455 11.0052 16.4162 11.1501C16.387 11.295 16.4977 11.4303 16.6455 11.4303H16.6598C16.8099 11.4303 16.9249 11.5636 16.9028 11.7121L16.8559 12.0281C16.831 12.1959 16.6869 12.3201 16.5173 12.3201C16.3492 12.3201 16.2059 12.4423 16.1785 12.6082C16.0731 13.2442 15.9525 13.9168 15.9509 14.0176C15.9509 14.2085 16.0527 14.2918 16.2844 14.2918C16.4042 14.2918 16.5244 14.4015 16.5058 14.5199L16.4528 14.8566ZM19.4269 14.8231C19.4029 14.9602 19.3043 15.0739 19.1689 15.1063C18.9124 15.1675 18.6589 15.1973 18.3938 15.1966C17.3097 15.1956 16.7445 14.6293 16.7445 13.545C16.7445 12.2794 17.4635 11.3477 18.4395 11.3477C19.238 11.3477 19.748 11.8693 19.748 12.6875C19.748 12.7277 19.7472 12.7678 19.7456 12.8082C19.7272 13.2754 19.2965 13.5981 18.829 13.5981H18.5858C18.0801 13.5981 17.6227 14.134 18.1014 14.2969C18.2253 14.339 18.3737 14.3589 18.5417 14.3589C18.6557 14.3589 18.7661 14.3512 18.8752 14.3351C19.1706 14.2914 19.4783 14.5289 19.4269 14.8231ZM18.3827 12.8516C18.6421 12.8516 18.9114 12.6306 18.7916 12.4005C18.7309 12.2838 18.6137 12.1908 18.3928 12.1908C18.2597 12.1908 18.1429 12.2345 18.046 12.3185C17.8088 12.5239 18.0689 12.8516 18.3827 12.8516ZM12.6724 12.6008C12.6724 13.0691 12.8995 13.392 13.4145 13.6346C13.8091 13.82 13.8701 13.875 13.8701 14.0431C13.8701 14.2739 13.6961 14.3781 13.3105 14.3781C13.1727 14.3781 13.0394 14.3679 12.9041 14.3464C12.6548 14.3069 12.401 14.465 12.3619 14.7145C12.3284 14.9283 12.4671 15.1286 12.6819 15.1552C12.8319 15.1739 13.0275 15.1886 13.3176 15.1966C14.3457 15.1966 14.8205 14.8052 14.8205 13.9591C14.8205 13.4504 14.6218 13.1518 14.1337 12.9275C13.7251 12.74 13.6782 12.6981 13.6782 12.5252C13.6782 12.325 13.8401 12.2229 14.1551 12.2229C14.2356 12.2229 14.3284 12.2265 14.4273 12.2333C14.6657 12.2497 14.8856 12.0896 14.9237 11.8538C14.9624 11.6143 14.799 11.3894 14.5572 11.369C14.4011 11.3558 14.2485 11.3477 14.1364 11.3477C13.0464 11.3477 12.6691 11.917 12.6724 12.6008ZM24.1269 11.445C24.2217 11.445 24.3142 11.4537 24.4094 11.4725C24.7151 11.533 25.0481 11.3774 25.0978 11.0697C25.1323 10.8556 25.0202 10.6308 24.8254 10.5355C24.6111 10.4308 24.3354 10.3179 24.0861 10.3179C23.684 10.3179 23.3203 10.4409 23.0096 10.6604C22.6539 10.9117 22.1437 11.0041 21.8068 11.2799C21.6732 11.3893 21.5614 11.5444 21.4429 11.7029C21.4231 11.7293 21.3946 11.7478 21.3624 11.7553C21.2651 11.778 21.1772 11.6952 21.1857 11.5956C21.1862 11.5894 21.1867 11.5832 21.1872 11.577C21.1932 11.4951 21.1251 11.4304 21.043 11.4304H20.729C20.4821 11.4304 20.2754 11.6166 20.2448 11.8615C20.1191 12.8667 19.9347 13.8806 19.7864 14.8841C19.7633 15.0139 19.8631 15.1329 19.9949 15.1329H20.3093C20.5438 15.1329 20.7435 14.9616 20.7783 14.7297C20.8807 14.0468 20.9484 13.5461 20.9953 13.169C21.0131 13.0257 21.0977 12.8993 21.2239 12.8291L21.231 12.8252C21.3327 12.7686 21.3823 12.6889 21.4594 12.6018C21.6349 12.4034 21.9157 12.7084 21.8995 12.9727C21.8943 13.0587 21.8917 13.1449 21.8918 13.2312C21.8918 14.4425 22.5453 15.1966 23.5943 15.1966C23.7953 15.1966 23.9751 15.1769 24.2018 15.1268C24.3572 15.0924 24.472 14.963 24.4979 14.806C24.5519 14.4796 24.2059 14.2357 23.8758 14.2571C23.8498 14.2587 23.8242 14.2596 23.7988 14.2596C23.2324 14.2596 22.8897 13.8415 22.8897 13.1504C22.8896 12.1479 23.3994 11.445 24.1269 11.445Z" fill="black"/>
<path d="M9.32763 14.4586C9.28908 14.6914 9.08773 14.8622 8.85173 14.8622H8.63189C8.45052 14.8622 8.31215 14.7 8.34074 14.5209C8.39724 14.1668 7.89213 14.0377 7.77184 14.3755L7.67461 14.6485C7.62899 14.7766 7.50769 14.8622 7.3717 14.8622H7.23164C7.06636 14.8622 6.9313 14.7302 6.9274 14.565C6.9187 14.1963 6.38441 14.1579 6.32309 14.5216L6.30954 14.6019C6.28421 14.7522 6.15412 14.8622 6.00177 14.8622H5.88515C5.60692 14.8622 5.39535 14.6122 5.44128 14.3378L6.00859 10.9483C6.07024 10.58 6.38906 10.3101 6.76256 10.3101H7.11093C7.33578 10.3101 7.51894 10.4907 7.52208 10.7155C7.52855 11.1782 8.17595 11.2792 8.3231 10.8405L8.3978 10.6178C8.45946 10.434 8.63169 10.3101 8.82561 10.3101H9.07443C9.56665 10.3101 9.94125 10.7518 9.86086 11.2374L9.32763 14.4586Z" fill="white"/>
<path d="M32.7316 10.5801C32.5258 10.5801 32.3504 10.7291 32.317 10.9321C32.2573 11.296 31.7631 11.3894 31.403 11.31C31.3469 11.2976 31.2888 11.2911 31.2283 11.2911C30.821 11.2911 30.4441 11.5468 30.1602 11.9464C30.0528 12.0974 29.8712 12.1874 29.6919 12.1404C29.421 12.0694 29.1969 11.9946 29.1692 11.9852C29.1676 11.9847 29.1662 11.9859 29.1661 11.9876C29.1698 11.9535 29.1732 11.9209 29.1764 11.8898C29.2025 11.6332 29.0061 11.4303 28.7482 11.4303C28.5014 11.4303 28.2948 11.6165 28.2643 11.8613C28.1389 12.8666 27.9545 13.8804 27.8064 14.884C27.7831 15.0137 27.8828 15.1328 28.0145 15.1328H28.3292C28.5634 15.1328 28.7628 14.9619 28.7977 14.7303C28.8851 14.1504 28.957 13.6455 29.0149 13.216C29.0332 13.08 29.1331 12.9224 29.2308 12.826C29.515 12.5459 29.7219 12.8519 29.6699 13.2475C29.6521 13.3829 29.6428 13.521 29.6428 13.6603C29.6428 14.5859 30.1111 15.1965 30.8195 15.1965C31.0942 15.1965 31.3198 15.1236 31.5309 14.96C31.5936 14.9114 31.6948 14.9614 31.6844 15.04C31.6779 15.0888 31.7159 15.1322 31.7652 15.1322H32.2003C32.4272 15.1322 32.6206 14.9678 32.6571 14.7439L33.2461 11.1309C33.2932 10.8422 33.0703 10.5801 32.7778 10.5801H32.7316ZM31.1563 14.2772C30.8246 14.2772 30.6572 14.0317 30.6572 13.5473C30.6572 12.8197 30.9707 12.3036 31.4128 12.3036C31.7475 12.3036 31.9288 12.5588 31.9288 13.029C31.9288 13.763 31.6103 14.2772 31.1563 14.2772Z" fill="black"/>
<path d="M11.6373 13.43C11.6588 13.3086 11.5652 13.1982 11.4419 13.1982C10.8896 13.1982 10.6102 13.3876 10.6102 13.7615C10.6102 13.9917 10.7467 14.1389 10.9592 14.1389C11.3016 14.1388 11.5613 13.8582 11.6373 13.43ZM12.4154 14.4894C12.3856 14.7003 12.2048 14.8624 11.9919 14.8624H11.6592C11.6057 14.8624 11.563 14.8177 11.5656 14.7642C11.5699 14.6738 11.4478 14.6235 11.3762 14.6787C11.1594 14.8459 10.8915 14.9267 10.5582 14.9267C10.0298 14.9267 9.66797 14.5142 9.66797 13.9153C9.66797 13.0137 10.2975 12.4882 11.3788 12.4882C11.4253 12.4882 11.4773 12.49 11.5327 12.4934C11.6716 12.502 11.8138 12.4155 11.8138 12.2763C11.8138 12.0309 11.6442 11.9398 11.189 11.9398C11.0319 11.9381 10.884 11.9498 10.7504 11.9682C10.4752 12.0061 10.2245 11.6939 10.2689 11.4197C10.2917 11.279 10.3793 11.2474 10.5172 11.2112C10.8833 11.1151 11.1571 11.0775 11.4586 11.0775C12.2955 11.0775 12.7388 11.4534 12.738 12.1628C12.7394 12.3538 12.7077 12.5884 12.6588 12.8965C12.5965 13.2921 12.4814 14.0217 12.4154 14.4894ZM25.0847 10.3148C25.2934 10.3745 25.4125 10.5856 25.3779 10.7999C25.3282 11.1076 24.9952 11.2633 24.6894 11.2027C24.5943 11.1838 24.5019 11.1751 24.4072 11.1751C23.6797 11.1751 23.1697 11.878 23.1697 12.8804C23.1697 13.5715 23.5126 13.9895 24.0789 13.9895C24.1042 13.9895 24.1298 13.9887 24.1557 13.987C24.4857 13.9657 24.8318 14.2095 24.778 14.5358C24.7521 14.6926 24.6377 14.8219 24.4826 14.8564C24.2555 14.907 24.0757 14.9267 23.8743 14.9267C22.8255 14.9267 22.1718 14.1725 22.1718 12.9613C22.1718 11.3338 23.0747 10.1963 24.3662 10.1963C24.6074 10.1963 24.8735 10.2543 25.0847 10.3148ZM26.9873 13.43C27.0089 13.3086 26.9152 13.1982 26.792 13.1982C26.2399 13.1982 25.9603 13.3876 25.9603 13.7615C25.9603 13.9917 26.0967 14.1389 26.3095 14.1389C26.6515 14.1388 26.9113 13.8582 26.9873 13.43ZM27.7654 14.4892C27.7356 14.7002 27.5547 14.8624 27.3417 14.8624H27.009C26.9555 14.8624 26.9129 14.8176 26.9155 14.7642C26.9198 14.6738 26.7978 14.6235 26.7261 14.6787C26.5093 14.8459 26.2415 14.9267 25.9082 14.9267C25.3801 14.9267 25.018 14.5142 25.018 13.9153C25.018 13.0137 25.6478 12.4882 26.7286 12.4882C26.7752 12.4882 26.8273 12.49 26.8827 12.4934C27.0215 12.502 27.1638 12.4154 27.1638 12.2763C27.1638 12.0309 26.9942 11.9398 26.539 11.9398C26.382 11.9381 26.2341 11.9498 26.1005 11.9682C25.8253 12.0061 25.5746 11.6939 25.6191 11.4196C25.642 11.279 25.7296 11.2474 25.8674 11.2113C26.2335 11.1151 26.5071 11.0775 26.8086 11.0775C27.6457 11.0775 28.0888 11.4534 28.0877 12.1628C28.0894 12.3538 28.058 12.5884 28.0088 12.8965C27.9467 13.2921 27.8314 14.0215 27.7654 14.4892ZM16.7333 14.5865C16.7121 14.7211 16.617 14.8344 16.4845 14.8664C16.3127 14.908 16.1602 14.9267 15.9987 14.9267C15.5006 14.9267 15.2287 14.6404 15.2287 14.1134C15.2218 13.9494 15.3006 13.5194 15.3625 13.1265C15.4035 12.8727 15.6113 11.6335 15.7193 10.9898C15.7572 10.7643 15.9523 10.5999 16.181 10.5999H16.4672C16.615 10.5999 16.7258 10.7353 16.6966 10.8802L16.6905 10.9105C16.6645 11.0398 16.7633 11.1605 16.8952 11.1605C17.0227 11.1605 17.1204 11.2738 17.1016 11.4L17.0419 11.8019C17.0207 11.9444 16.8983 12.0499 16.7542 12.0499C16.6114 12.0499 16.4897 12.1537 16.4664 12.2947C16.3594 12.9433 16.2329 13.644 16.2314 13.7473C16.2314 13.9388 16.3335 14.0215 16.565 14.0215C16.6847 14.0215 16.8049 14.1316 16.7863 14.2499L16.7333 14.5865ZM19.7074 14.5534C19.6834 14.6904 19.5849 14.8041 19.4496 14.8364C19.1931 14.8976 18.9393 14.9272 18.6743 14.9267C17.5901 14.9257 17.025 14.3594 17.025 13.2751C17.025 12.009 17.744 11.0776 18.72 11.0776C19.5185 11.0776 20.0285 11.599 20.0285 12.4176C20.0285 12.4577 20.0277 12.4976 20.0261 12.5378C20.0079 13.0052 19.577 13.3282 19.1093 13.3282H18.8664C18.3608 13.3282 17.9033 13.8639 18.3818 14.027C18.5058 14.0693 18.6544 14.0892 18.8225 14.0892C18.9362 14.0892 19.0464 14.0815 19.1553 14.0654C19.4508 14.0217 19.7588 14.2591 19.7074 14.5534ZM18.6649 12.5811C18.9237 12.5811 19.1916 12.3618 19.073 12.1317C19.0125 12.0142 18.8951 11.9203 18.6731 11.9203C18.5407 11.9203 18.4245 11.9637 18.3279 12.047C18.0896 12.2523 18.3503 12.5811 18.6649 12.5811ZM12.9527 12.3309C12.9527 12.7992 13.1798 13.1217 13.6948 13.3647C14.0894 13.5501 14.1504 13.6053 14.1504 13.7732C14.1504 14.004 13.9763 14.1082 13.5911 14.1082C13.4532 14.1082 13.3199 14.098 13.1846 14.0765C12.9351 14.037 12.6812 14.1956 12.6422 14.4452C12.6088 14.6589 12.7474 14.8586 12.9621 14.8851C13.112 14.9037 13.3077 14.9184 13.5979 14.9267C14.6263 14.9267 15.1009 14.5353 15.1009 13.6894C15.1009 13.1804 14.9023 12.8819 14.414 12.6576C14.0056 12.4697 13.9584 12.4284 13.9584 12.2553C13.9584 12.0553 14.1206 11.9524 14.4354 11.9524C14.5158 11.9524 14.6086 11.9561 14.7077 11.963C14.9461 11.9797 15.1661 11.8197 15.2042 11.5837C15.2428 11.3441 15.0793 11.1193 14.8375 11.0989C14.6815 11.0857 14.529 11.0776 14.4169 11.0776C13.3267 11.0776 12.9496 11.6465 12.9527 12.3309ZM32.9385 14.4741C32.902 14.698 32.7086 14.8624 32.4818 14.8624H32.0464C31.9972 14.8624 31.9591 14.819 31.9656 14.7701C31.9761 14.6915 31.8748 14.6415 31.8121 14.6901C31.601 14.8539 31.3756 14.9267 31.1009 14.9267C30.3925 14.9267 29.9244 14.3161 29.9244 13.3905C29.9244 12.159 30.6504 11.1208 31.5098 11.1208C31.553 11.1208 31.5949 11.1229 31.6357 11.1269C32.0027 11.1636 32.5386 11.0261 32.5984 10.6622C32.6318 10.4592 32.8072 10.3102 33.0129 10.3102H33.0592C33.3517 10.3102 33.5746 10.5724 33.5275 10.8611L32.9385 14.4741ZM31.438 14.0069C31.8917 14.0069 32.2105 13.4928 32.2105 12.7593C32.2105 12.289 32.029 12.0338 31.6942 12.0338C31.2523 12.0338 30.9384 12.5497 30.9384 13.2776C30.9384 13.7619 31.1063 14.0069 31.438 14.0069ZM29.0297 11.1605C28.783 11.1605 28.5764 11.3467 28.5458 11.5915C28.4203 12.5967 28.236 13.6105 28.0877 14.6136C28.0645 14.7433 28.1642 14.8624 28.2959 14.8624H28.6105C28.8448 14.8624 29.0439 14.6914 29.08 14.4599C29.2766 13.1992 29.3898 12.6015 29.5905 12.3552C29.7522 12.1568 30.0307 12.0175 30.1051 11.7725C30.1462 11.6372 30.1912 11.5133 30.2361 11.4063C30.2927 11.271 30.2133 11.1024 30.0706 11.1361C29.9392 11.1672 29.8257 11.244 29.7142 11.3595C29.6333 11.4433 29.4855 11.3822 29.4906 11.2659C29.4933 11.2066 29.4441 11.1605 29.3848 11.1605H29.0297ZM21.0082 11.1605C20.7617 11.1605 20.5554 11.3464 20.5248 11.5909C20.3991 12.5964 20.2146 13.6104 20.0665 14.6136C20.0433 14.7433 20.1431 14.8624 20.2748 14.8624H20.5895C20.824 14.8624 21.0233 14.6912 21.0594 14.4595C21.2556 13.1998 21.3686 12.6022 21.5689 12.3556C21.7304 12.1568 22.0093 12.0174 22.0839 11.7723C22.1251 11.6368 22.1702 11.5129 22.215 11.4058C22.2716 11.2707 22.1922 11.1024 22.0497 11.136C21.9182 11.1671 21.8046 11.2439 21.693 11.3596C21.6122 11.4433 21.4642 11.3823 21.4694 11.266C21.4721 11.2067 21.423 11.1605 21.3636 11.1605H21.0082ZM33.3033 14.5726C33.3033 14.4119 33.4331 14.2826 33.5931 14.2826C33.753 14.2824 33.8827 14.4119 33.8829 14.5718V14.5726C33.8828 14.7326 33.7531 14.8623 33.5931 14.8624C33.4331 14.8623 33.3034 14.7326 33.3033 14.5726ZM33.5931 14.7928C33.7147 14.7928 33.8133 14.6943 33.8133 14.5727V14.5726C33.8134 14.451 33.7149 14.3523 33.5933 14.3522H33.5931C33.4714 14.3523 33.3727 14.4509 33.3727 14.5726C33.3728 14.6942 33.4715 14.7928 33.5931 14.7928ZM33.5539 14.6991C33.5539 14.6992 33.5539 14.6993 33.5538 14.6993H33.5242C33.5078 14.6993 33.4945 14.686 33.4945 14.6696V14.5528C33.4945 14.4933 33.5427 14.4451 33.6022 14.4451C33.6245 14.4451 33.6476 14.4455 33.667 14.4578C33.6878 14.4719 33.6997 14.4961 33.6997 14.5215C33.6997 14.5333 33.6969 14.5449 33.6916 14.555C33.6791 14.5791 33.6641 14.6082 33.6746 14.6331L33.6848 14.6573C33.6931 14.6772 33.6786 14.6991 33.657 14.6991C33.6446 14.6991 33.6335 14.6915 33.629 14.6799L33.6038 14.6152C33.6 14.6053 33.5904 14.5987 33.5797 14.5987C33.5655 14.5987 33.5539 14.6103 33.5539 14.6246V14.6991ZM33.5539 14.5229C33.5539 14.5408 33.5687 14.5553 33.5866 14.5553C33.5989 14.5553 33.6123 14.5562 33.6231 14.5503C33.6328 14.544 33.6378 14.5322 33.6378 14.5209C33.6374 14.5104 33.6321 14.5007 33.6235 14.4947C33.6133 14.4889 33.5964 14.4905 33.5853 14.4905C33.568 14.4905 33.5539 14.5046 33.5539 14.5219V14.5229Z" fill="white"/>
</svg>
