<svg width="39" height="25" viewBox="0 0 39 25" fill="none" xmlns="http://www.w3.org/2000/svg">
<path d="M38 0H1C0.447715 0 0 0.447716 0 1V24C0 24.5523 0.447715 25 1 25H38C38.5523 25 39 24.5523 39 24V1C39 0.447715 38.5523 0 38 0Z" fill="#0E4595"/>
<path d="M15.8446 17.4368C15.2251 17.4368 14.7547 16.8794 14.8588 16.2688L16.186 8.48084C16.2679 8.0003 16.6843 7.64883 17.1718 7.64883H17.8108C18.4303 7.64883 18.9007 8.20629 18.7966 8.81694L17.4684 16.6049C17.3865 17.0854 16.97 17.4368 16.4826 17.4368H15.8446ZM26.8264 8.67398C26.907 8.20139 26.6416 7.73136 26.1741 7.6251C25.7258 7.52321 25.186 7.44873 24.5741 7.44873C21.9379 7.44873 20.0809 8.77623 20.0651 10.6789C20.0502 12.0854 21.3908 12.87 22.4027 13.3382C23.4413 13.8179 23.7903 14.1239 23.7854 14.5523C23.7789 15.2084 22.9561 15.5081 22.1893 15.5081C21.1215 15.5081 20.5542 15.3598 19.678 14.9943C19.5041 14.9157 19.3028 15.0226 19.2706 15.2108L19.0914 16.2595C19.014 16.7122 19.256 17.1612 19.7012 17.274C20.322 17.4313 21.1166 17.5438 21.9316 17.5521C24.7361 17.5521 26.5566 16.2398 26.5774 14.208C26.5874 13.0946 25.8766 12.2472 24.3374 11.5486C23.4049 11.0959 22.8338 10.7937 22.8398 10.3352C22.8398 9.92838 23.3232 9.49328 24.3677 9.49328C25.2401 9.47978 25.8722 9.67003 26.3646 9.86828C26.4846 9.92504 26.6257 9.85155 26.6481 9.72063L26.8264 8.67398ZM33.8307 7.64865C33.8307 7.64867 33.8307 7.64868 33.8307 7.64868H31.7691C31.1305 7.64868 30.6525 7.82303 30.3721 8.46038L27.0301 16.0263C26.7381 16.6874 27.2221 17.4304 27.9448 17.4304H28.5215C28.9368 17.4304 29.3088 17.1737 29.4567 16.7855C29.4805 16.7231 29.5047 16.6596 29.5286 16.5967C29.6753 16.2121 30.0431 15.9597 30.4548 15.9602C31.0322 15.961 31.8466 15.9621 32.445 15.9629C32.8816 15.9635 33.2868 16.3919 33.3805 16.8183C33.4753 17.2497 33.8294 17.4304 34.2711 17.4304H34.7927C35.4075 17.4304 35.8645 16.8615 35.732 16.2611L33.8308 7.64864C33.8308 7.64861 33.8307 7.64862 33.8307 7.64865ZM30.8931 13.9692C30.7329 13.9692 30.6225 13.8087 30.6806 13.6594C30.8581 13.2037 31.1367 12.486 31.345 11.9491C31.3747 11.8727 31.8415 10.6578 31.8707 10.5811C31.8947 10.5182 32.0111 10.4605 32.0251 10.5264L32.1568 11.1428C32.1568 11.1428 32.3764 12.147 32.5577 12.9768C32.6692 13.4869 32.2808 13.9692 31.7586 13.9692H30.8931ZM12.3948 7.64868L10.2874 13.0341C10.1387 13.4142 9.5865 13.3669 9.50447 12.9672C9.20583 12.0068 8.51914 10.9973 7.64135 10.1647C7.01196 9.56777 6.18276 10.1989 6.41589 11.0344L7.9936 16.6892C8.11432 17.1218 8.50874 17.4209 8.95795 17.4204L10.3629 17.4188C10.7621 17.4184 11.1228 17.1805 11.2805 16.8138L14.6211 9.04356C14.9049 8.38356 14.4208 7.64858 13.7024 7.64858H12.3948" fill="white"/>
<path d="M7.34587 7.64766H3.14218C3.08541 7.64766 3.03696 7.68869 3.02759 7.74468C3.01755 7.80477 3.05617 7.86249 3.11526 7.87732C4.4915 8.22286 5.67323 8.76391 6.64889 9.44694C7.0364 9.71823 8.65159 8.93694 8.55527 8.47381C8.39377 7.85406 7.92542 7.66911 7.34597 7.64746" fill="#F2AE14"/>
</svg>
